<!DOCTYPE svg PUBLIC "-//W3C//DTD SVG 1.1//EN" "http://www.w3.org/Graphics/SVG/1.1/DTD/svg11.dtd">
<!-- Uploaded to: SVG Repo, www.svgrepo.com, Transformed by: SVG Repo Mixer Tools -->
<svg xmlns="http://www.w3.org/2000/svg" aria-label="dev.to" role="img" viewBox="-51.2 -51.2 614.40 614.40" width="800px" height="800px" fill="#1f2937" transform="rotate(0)matrix(1, 0, 0, 1, 0, 0)" stroke="#1f2937">
<g id="SVGRepo_bgCarrier" stroke-width="0" transform="translate(0,0), scale(1)">
<path transform="translate(-51.2, -51.2), scale(19.2)" d="M16,30.485786221921444C18.214027807727742,31.268009794309297,21.340279314063086,30.737417685267975,22.7486795818931,28.858534629788664C24.357427570750108,26.712376747088896,21.878107813894395,23.297608911318573,23.15593100417906,20.9393825346752C24.225417785091658,18.965641601348075,27.681325713498012,19.467316502897713,28.86945053836299,17.562634207348825C30.06352868304608,15.648408147862018,30.028670866253123,13.083955248923573,29.409370768118244,10.914496465982923C28.77567829168704,8.694620007352565,27.031543111131548,7.023366510623369,25.39583914584351,5.394290028622674C23.689947368440663,3.695310118822201,22.000758362981333,0.6768492396523467,19.649346843774605,1.1940178363963643C16.75344746432804,1.8309408956512154,16.883462336827694,7.194387335815882,14.00350838927424,7.899915123547046C11.116880140696125,8.60707797382516,8.79181063256978,4.009440635317746,5.872964565569498,4.568940036085621C3.387541318288359,5.045358725385487,1.5842874280788788,7.873441025082743,1.1422998989674387,10.365217602095555C0.696461466660893,12.878704272153746,2.7354519777006088,15.098589198144893,3.5777955374361277,17.508328701836913C4.2491248151817365,19.428838049681353,4.135735146947436,21.77233839741941,5.617175746555262,23.16674612263823C7.090795726903578,24.55379268068346,9.708547238055782,23.66981704170747,11.362614867991415,24.835799149746016C13.383401179927784,26.26028787151533,13.668818954115117,29.66217201110158,16,30.485786221921444" fill="#a855f7" strokewidth="0"/>
</g>
<g id="SVGRepo_tracerCarrier" stroke-linecap="round" stroke-linejoin="round" stroke="#a855f7" stroke-width="12.288">
<rect width="512" height="512" rx="15%"/>
<path fill="#ffffff" d="M140.47 203.94h-17.44v104.47h17.45c10.155-.545 17.358-8.669 17.47-17.41v-69.65c-.696-10.364-7.796-17.272-17.48-17.41zm45.73 87.25c0 18.81-11.61 47.31-48.36 47.25h-46.4V172.98h47.38c35.44 0 47.36 28.46 47.37 47.28zm100.68-88.66H233.6v38.42h32.57v29.57H233.6v38.41h53.29v29.57h-62.18c-11.16.29-20.44-8.53-20.72-19.69V193.7c-.27-11.15 8.56-20.41 19.71-20.69h63.19zm103.64 115.29c-13.2 30.75-36.85 24.63-47.44 0l-38.53-144.8h32.57l29.71 113.72 29.57-113.72h32.58z"/>
</g>
<g id="SVGRepo_iconCarrier">
<rect width="512" height="512" rx="15%"/>
<path fill="#ffffff" d="M140.47 203.94h-17.44v104.47h17.45c10.155-.545 17.358-8.669 17.47-17.41v-69.65c-.696-10.364-7.796-17.272-17.48-17.41zm45.73 87.25c0 18.81-11.61 47.31-48.36 47.25h-46.4V172.98h47.38c35.44 0 47.36 28.46 47.37 47.28zm100.68-88.66H233.6v38.42h32.57v29.57H233.6v38.41h53.29v29.57h-62.18c-11.16.29-20.44-8.53-20.72-19.69V193.7c-.27-11.15 8.56-20.41 19.71-20.69h63.19zm103.64 115.29c-13.2 30.75-36.85 24.63-47.44 0l-38.53-144.8h32.57l29.71 113.72 29.57-113.72h32.58z"/>
</g>
</svg>